<svg xmlns="http://www.w3.org/2000/svg" xmlns:xlink="http://www.w3.org/1999/xlink" width="500" zoomAndPan="magnify" viewBox="0 0 375 374.999991" height="500" preserveAspectRatio="xMidYMid meet" version="1.0"><defs><clipPath id="146c82df45"><path d="M 37.5 37.5 L 337.5 37.5 L 337.5 337.5 L 37.5 337.5 Z M 37.5 37.5 " clip-rule="nonzero"/></clipPath><clipPath id="22687c8a15"><path d="M 141.601562 172.183594 L 187 172.183594 L 187 211.933594 L 141.601562 211.933594 Z M 141.601562 172.183594 " clip-rule="nonzero"/></clipPath></defs><rect x="-37.5" width="450" fill="#ffffff" y="-37.499999" height="449.999989" fill-opacity="1"/><rect x="-37.5" width="450" fill="#ffffff" y="-37.499999" height="449.999989" fill-opacity="1"/><g clip-path="url(#146c82df45)"><path fill="#1800ad" d="M 112.5 37.5 C 106.585938 37.5 101.785156 42.300781 101.785156 48.214844 L 101.785156 58.929688 L 80.355469 58.929688 C 56.808594 58.929688 37.5 78.238281 37.5 101.785156 L 37.5 294.644531 C 37.5 318.191406 56.808594 337.5 80.355469 337.5 L 294.644531 337.5 C 318.191406 337.5 337.5 318.191406 337.5 294.644531 L 337.5 101.785156 C 337.5 78.238281 318.191406 58.929688 294.644531 58.929688 L 273.214844 58.929688 L 273.214844 48.214844 C 273.214844 42.300781 268.414062 37.5 262.5 37.5 C 256.585938 37.5 251.785156 42.300781 251.785156 48.214844 L 251.785156 58.929688 L 198.214844 58.929688 L 198.214844 48.214844 C 198.214844 42.300781 193.414062 37.5 187.5 37.5 C 181.585938 37.5 176.785156 42.300781 176.785156 48.214844 L 176.785156 58.929688 L 123.214844 58.929688 L 123.214844 48.214844 C 123.214844 42.300781 118.414062 37.5 112.5 37.5 Z M 80.355469 80.355469 L 101.785156 80.355469 L 101.785156 91.070312 C 101.785156 96.988281 106.585938 101.785156 112.5 101.785156 C 118.414062 101.785156 123.214844 96.988281 123.214844 91.070312 L 123.214844 80.355469 L 176.785156 80.355469 L 176.785156 91.070312 C 176.785156 96.988281 181.585938 101.785156 187.5 101.785156 C 193.414062 101.785156 198.214844 96.988281 198.214844 91.070312 L 198.214844 80.355469 L 251.785156 80.355469 L 251.785156 91.070312 C 251.785156 96.988281 256.585938 101.785156 262.5 101.785156 C 268.414062 101.785156 273.214844 96.988281 273.214844 91.070312 L 273.214844 80.355469 L 294.644531 80.355469 C 306.695312 80.355469 316.070312 89.730469 316.070312 101.785156 L 316.070312 123.214844 L 58.929688 123.214844 L 58.929688 101.785156 C 58.929688 89.730469 68.304688 80.355469 80.355469 80.355469 Z M 58.929688 144.644531 L 316.070312 144.644531 L 316.070312 294.644531 C 316.070312 306.695312 306.695312 316.070312 294.644531 316.070312 L 80.355469 316.070312 C 68.304688 316.070312 58.929688 306.695312 58.929688 294.644531 Z M 58.929688 144.644531 " fill-opacity="1" fill-rule="nonzero"/></g><path fill="#1800ad" d="M 96.484375 176.839844 L 117.855469 176.839844 C 120.816406 176.839844 123.214844 179.183594 123.214844 182.199219 L 123.214844 203.570312 C 123.214844 206.527344 120.816406 208.929688 117.855469 208.929688 L 96.484375 208.929688 C 93.472656 208.929688 91.128906 206.527344 91.128906 203.570312 L 91.128906 182.199219 C 91.128906 179.183594 93.472656 176.839844 96.484375 176.839844 Z M 96.484375 176.839844 " fill-opacity="1" fill-rule="nonzero"/><path fill="#1800ad" d="M 150 176.839844 L 171.371094 176.839844 C 174.386719 176.839844 176.730469 179.183594 176.730469 182.199219 L 176.730469 203.570312 C 176.730469 206.527344 174.386719 208.929688 171.371094 208.929688 L 150 208.929688 C 147.042969 208.929688 144.644531 206.527344 144.644531 203.570312 L 144.644531 182.199219 C 144.644531 179.183594 147.042969 176.839844 150 176.839844 Z M 150 176.839844 " fill-opacity="1" fill-rule="nonzero"/><path fill="#1800ad" d="M 203.628906 176.839844 L 225 176.839844 C 227.957031 176.839844 230.355469 179.183594 230.355469 182.199219 L 230.355469 203.570312 C 230.355469 206.527344 227.957031 208.929688 225 208.929688 L 203.628906 208.929688 C 200.613281 208.929688 198.269531 206.527344 198.269531 203.570312 L 198.269531 182.199219 C 198.269531 179.183594 200.613281 176.839844 203.628906 176.839844 Z M 203.628906 176.839844 " fill-opacity="1" fill-rule="nonzero"/><path fill="#1800ad" d="M 257.144531 176.839844 L 278.515625 176.839844 C 281.527344 176.839844 283.871094 179.183594 283.871094 182.199219 L 283.871094 203.570312 C 283.871094 206.527344 281.527344 208.929688 278.515625 208.929688 L 257.144531 208.929688 C 254.183594 208.929688 251.785156 206.527344 251.785156 203.570312 L 251.785156 182.199219 C 251.785156 179.183594 254.183594 176.839844 257.144531 176.839844 Z M 257.144531 176.839844 " fill-opacity="1" fill-rule="nonzero"/><path fill="#1800ad" d="M 96.484375 241.070312 L 117.855469 241.070312 C 120.816406 241.070312 123.214844 243.472656 123.214844 246.429688 L 123.214844 267.800781 C 123.214844 270.816406 120.816406 273.160156 117.855469 273.160156 L 96.484375 273.160156 C 93.472656 273.160156 91.128906 270.816406 91.128906 267.800781 L 91.128906 246.429688 C 91.128906 243.472656 93.472656 241.070312 96.484375 241.070312 Z M 96.484375 241.070312 " fill-opacity="1" fill-rule="nonzero"/><path fill="#1800ad" d="M 150 241.070312 L 171.371094 241.070312 C 174.386719 241.070312 176.730469 243.472656 176.730469 246.429688 L 176.730469 267.800781 C 176.730469 270.816406 174.386719 273.160156 171.371094 273.160156 L 150 273.160156 C 147.042969 273.160156 144.644531 270.816406 144.644531 267.800781 L 144.644531 246.429688 C 144.644531 243.472656 147.042969 241.070312 150 241.070312 Z M 150 241.070312 " fill-opacity="1" fill-rule="nonzero"/><path fill="#1800ad" d="M 203.628906 241.070312 L 225 241.070312 C 227.957031 241.070312 230.355469 243.472656 230.355469 246.429688 L 230.355469 267.800781 C 230.355469 270.816406 227.957031 273.160156 225 273.160156 L 203.628906 273.160156 C 200.613281 273.160156 198.269531 270.816406 198.269531 267.800781 L 198.269531 246.429688 C 198.269531 243.472656 200.613281 241.070312 203.628906 241.070312 Z M 203.628906 241.070312 " fill-opacity="1" fill-rule="nonzero"/><path fill="#1800ad" d="M 257.144531 241.070312 L 278.515625 241.070312 C 281.527344 241.070312 283.871094 243.472656 283.871094 246.429688 L 283.871094 267.800781 C 283.871094 270.816406 281.527344 273.160156 278.515625 273.160156 L 257.144531 273.160156 C 254.183594 273.160156 251.785156 270.816406 251.785156 267.800781 L 251.785156 246.429688 C 251.785156 243.472656 254.183594 241.070312 257.144531 241.070312 Z M 257.144531 241.070312 " fill-opacity="1" fill-rule="nonzero"/><g clip-path="url(#22687c8a15)"><path fill="#fe0000" d="M 141.597656 211.828125 C 142.878906 210.992188 145.585938 208.949219 148.695312 206.578125 C 151.808594 204.207031 155.355469 201.542969 159.28125 198.519531 C 163.203125 195.496094 167.308594 191.894531 170.210938 189.289062 C 173.109375 186.683594 174.6875 185.320312 176.320312 183.921875 C 177.957031 182.523438 179.648438 181.082031 181.382812 179.589844 C 183.117188 178.09375 184.863281 176.507812 186.101562 175.152344 C 187.335938 173.796875 186.191406 172.28125 185.234375 173.015625 C 185.234375 173.015625 182.9375 173.976562 180.992188 175.3125 C 179.050781 176.644531 177.21875 178.015625 175.464844 179.378906 C 173.710938 180.742188 172.023438 182.089844 170.398438 183.4375 C 168.773438 184.78125 164.445312 188.667969 160.628906 192.324219 C 156.8125 195.980469 153.554688 199.488281 150.597656 202.554688 C 147.640625 205.625 145.007812 208.277344 143.875 209.558594 C 141.597656 211.828125 142.746094 210.835938 141.597656 211.828125 Z M 141.597656 211.828125 " fill-opacity="1" fill-rule="nonzero"/></g><path fill="#fe0000" d="M 182.328125 206.507812 C 180.667969 205.164062 177.265625 202.839844 174.035156 200.519531 C 170.804688 198.195312 167.738281 195.886719 164.671875 193.882812 C 161.601562 191.875 158.613281 190.019531 156.3125 188.585938 C 154.007812 187.152344 152.414062 186.117188 150.988281 185.152344 C 149.558594 184.1875 148.292969 183.292969 147.175781 182.488281 C 146.058594 181.683594 145.046875 181 144.277344 180.558594 C 143.507812 180.117188 142.15625 181.445312 142.558594 181.863281 C 142.558594 181.863281 143.039062 183.066406 143.953125 184.113281 C 144.867188 185.164062 145.996094 186.214844 147.308594 187.292969 C 148.621094 188.367188 150.109375 189.484375 151.777344 190.644531 C 153.445312 191.800781 156.34375 193.691406 159.421875 195.558594 C 162.496094 197.425781 165.800781 199.179688 169.355469 200.785156 C 172.90625 202.390625 176.574219 204.066406 178.535156 204.773438 C 182.328125 206.507812 180.496094 205.480469 182.328125 206.507812 Z M 182.328125 206.507812 " fill-opacity="1" fill-rule="nonzero"/></svg>